# xmcd CD database file
#
# Track frame offsets:
#	150
#	10827
#	23185
#	34030
#	44947
#	57392
#	67267
#	75520
#	88122
#	99830
#	112072
#	122935
#	134205
#	144937
#	157107
#	167812
#
# Disc length: 2398 seconds
#
# Revision: 0
# Processed by: cddbd v1.5.1PL0 Copyright (c) Steve Scherf et al.
# Submitted via: CDex 1.51
#
DISCID=e9095c10
DTITLE=Price, Lloyd - Greatest Hits
DYEAR=1989
DGENRE=New Age
TTITLE0=Stagger Lee
TTITLE1=He Will Break Your Heart
TTITLE2=Ain't That Just Like A Woman
TTITLE3=Save The Last Dance For Me
TTITLE4=Talk To Me
TTITLE5=I Count The Tears
TTITLE6=I've Got The Blues And The Blues Got Me
TTITLE7=Spanish Harlem
TTITLE8=Personality
TTITLE9=Please Send Me Someone To Love
TTITLE10=C'est Si Bon
TTITLE11=Corinna, Corinna
TTITLE12=I'm A Lonely Man
TTITLE13=Will You Love Me Tomorrow
TTITLE14=Shop Around
TTITLE15=Once In A While
EXTD=YEAR: 1989
EXTT0=
EXTT1=
EXTT2=
EXTT3=
EXTT4=
EXTT5=
EXTT6=
EXTT7=
EXTT8=
EXTT9=
EXTT10=
EXTT11=
EXTT12=
EXTT13=
EXTT14=
EXTT15=
PLAYORDER=
